# xmcd
#
# Track frame offsets:
#	150
#	12777
#	25502
#	39490
#	52502
#	66125
#	78532
#	91722
#	105265
#	119682
#	130797
#	142250
#	155715
#	168480
#	181430
#	194675
#	206480
#	219767
#	232882
#	245177
#
# Disc length: 3439 seconds
# Revision: 6
# Processed by: cddbd v1.5.2PL0 Copyright (c) Steve Scherf et al.
# Submitted via: dBpowerAMP V12.0
#
DISCID=0b0d6d14
DTITLE=Big Bill Broonzy - Good Time Tonight
DYEAR=1990
DGENRE=Blues
TTITLE0=I Can't Be Satisfied
TTITLE1=Long Tall Mama
TTITLE2=Worrying You Off My Mind - Part 1
TTITLE3=Too Too Train Blues
TTITLE4=Come Home Early
TTITLE5=Hattie Blues
TTITLE6=I Want My Hands On It
TTITLE7=Made A Date With An Angel (Got No Walking Shoes)
TTITLE8=Horny Frog
TTITLE9=I Believe I'll Go Back Home
TTITLE10=Good Time Tonight
TTITLE11=Flat Foot Susie With Her Flat Yes Yes
TTITLE12=W.P.A. Rag
TTITLE13=Going Back To Arkansas
TTITLE14=It's A Low Down Dirty Shame
TTITLE15=Too Many Drivers
TTITLE16=Woodie Woodie
TTITLE17=Whiskey And Good Time Blues
TTITLE18=Merry Go Round Blues
TTITLE19=You've Got To Hit The Right Lick
EXTD=
EXTT0=
EXTT1=
EXTT2=
EXTT3=
EXTT4=
EXTT5=
EXTT6=
EXTT7=
EXTT8=
EXTT9=
EXTT10=
EXTT11=
EXTT12=
EXTT13=
EXTT14=
EXTT15=
EXTT16=
EXTT17=
EXTT18=
EXTT19=
PLAYORDER=
